<?xml version="1.0"?>
<svg xmlns="http://www.w3.org/2000/svg" xmlns:xlink="http://www.w3.org/1999/xlink" xmlns:svgjs="http://svgjs.com/svgjs" version="1.1" width="512" height="512" x="0" y="0" viewBox="0 0 24 24" style="enable-background:new 0 0 512 512" xml:space="preserve"><g><path xmlns="http://www.w3.org/2000/svg" d="m12 0a12 12 0 1 0 12 12 12.013 12.013 0 0 0 -12-12zm0 21a9 9 0 1 1 9-9 9.01 9.01 0 0 1 -9 9zm5-9a1.5 1.5 0 0 1 -1.5 1.5h-2v2a1.5 1.5 0 0 1 -3 0v-2h-2a1.5 1.5 0 0 1 0-3h2v-2a1.5 1.5 0 0 1 3 0v2h2a1.5 1.5 0 0 1 1.5 1.5z" fill="#293545" data-original="#000000"/></g></svg>
