<svg data-v-423bf9ae="" xmlns="http://www.w3.org/2000/svg" viewBox="0 0 198.76920920026672 163" class="iconAbove"><!----><!----><!----><g data-v-423bf9ae="" id="c6b20221-b96a-4e7a-ba50-1d9741ab94c6" fill="#000000" transform="matrix(5.128204793802585,0,0,5.128204793802585,-3.3846162193554363,96.0256427183711)"><path d="M9.59 6.06L9.59 6.06L9.59 6.06Q9.59 6.93 9.42 7.61L9.42 7.61L9.42 7.61Q9.25 8.29 8.96 8.80L8.96 8.80L8.96 8.80Q8.67 9.31 8.27 9.67L8.27 9.67L8.27 9.67Q7.87 10.02 7.42 10.26L7.42 10.26L9.41 12.26L7.15 12.26L5.77 10.74L5.77 10.74Q5.25 10.78 4.67 10.74L4.67 10.74L4.67 10.74Q4.09 10.70 3.52 10.52L3.52 10.52L3.52 10.52Q2.95 10.35 2.44 10.02L2.44 10.02L2.44 10.02Q1.92 9.69 1.53 9.16L1.53 9.16L1.53 9.16Q1.13 8.62 0.90 7.86L0.90 7.86L0.90 7.86Q0.66 7.10 0.66 6.06L0.66 6.06L0.66 6.06Q0.66 4.63 1.11 3.72L1.11 3.72L1.11 3.72Q1.55 2.81 2.22 2.29L2.22 2.29L2.22 2.29Q2.88 1.76 3.67 1.56L3.67 1.56L3.67 1.56Q4.45 1.36 5.12 1.36L5.12 1.36L5.12 1.36Q5.81 1.36 6.59 1.56L6.59 1.56L6.59 1.56Q7.38 1.76 8.04 2.29L8.04 2.29L8.04 2.29Q8.71 2.81 9.15 3.72L9.15 3.72L9.15 3.72Q9.59 4.63 9.59 6.06ZM2.70 6.06L2.70 6.06L2.70 6.06Q2.70 7.74 3.37 8.49L3.37 8.49L3.37 8.49Q4.03 9.24 5.12 9.24L5.12 9.24L5.12 9.24Q5.68 9.24 6.13 9.06L6.13 9.06L6.13 9.06Q6.58 8.88 6.90 8.49L6.90 8.49L6.90 8.49Q7.21 8.11 7.38 7.50L7.38 7.50L7.38 7.50Q7.55 6.89 7.55 6.05L7.55 6.05L7.55 6.05Q7.55 4.40 6.90 3.65L6.90 3.65L6.90 3.65Q6.24 2.90 5.12 2.90L5.12 2.90L5.12 2.90Q4.03 2.90 3.37 3.65L3.37 3.65L3.37 3.65Q2.70 4.41 2.70 6.06ZM13.36 2.93L13.36 5.01L14.38 5.01L14.38 5.01Q14.62 5.01 14.85 4.96L14.85 4.96L14.85 4.96Q15.09 4.90 15.27 4.77L15.27 4.77L15.27 4.77Q15.46 4.63 15.57 4.42L15.57 4.42L15.57 4.42Q15.68 4.21 15.68 3.91L15.68 3.91L15.68 3.91Q15.68 3.60 15.57 3.40L15.57 3.40L15.57 3.40Q15.46 3.21 15.27 3.10L15.27 3.10L15.27 3.10Q15.08 3.00 14.83 2.96L14.83 2.96L14.83 2.96Q14.59 2.93 14.31 2.93L14.31 2.93L13.36 2.93ZM17.91 7.74L17.91 7.76L17.91 7.76Q17.91 8.51 17.59 9.04L17.59 9.04L17.59 9.04Q17.28 9.56 16.75 9.89L16.75 9.89L16.75 9.89Q16.23 10.22 15.55 10.36L15.55 10.36L15.55 10.36Q14.88 10.50 14.17 10.50L14.17 10.50L11.38 10.50L11.38 1.36L14.35 1.36L14.35 1.36Q15.01 1.36 15.60 1.49L15.60 1.49L15.60 1.49Q16.20 1.62 16.65 1.92L16.65 1.92L16.65 1.92Q17.09 2.23 17.36 2.72L17.36 2.72L17.36 2.72Q17.63 3.21 17.64 3.93L17.64 3.93L17.64 3.95L17.64 3.95Q17.64 4.59 17.35 4.96L17.35 4.96L17.35 4.96Q17.07 5.32 16.73 5.52L16.73 5.52L16.73 5.52Q16.34 5.74 15.83 5.80L15.83 5.80L15.83 5.80Q16.41 5.85 16.87 6.09L16.87 6.09L16.87 6.09Q17.26 6.29 17.58 6.68L17.58 6.68L17.58 6.68Q17.91 7.07 17.91 7.74L17.91 7.74ZM13.36 8.95L14.46 8.95L14.46 8.95Q14.76 8.95 15.02 8.88L15.02 8.88L15.02 8.88Q15.29 8.82 15.49 8.67L15.49 8.67L15.49 8.67Q15.69 8.53 15.81 8.29L15.81 8.29L15.81 8.29Q15.93 8.05 15.93 7.70L15.93 7.70L15.93 7.70Q15.93 7.34 15.81 7.10L15.81 7.10L15.81 7.10Q15.68 6.86 15.47 6.72L15.47 6.72L15.47 6.72Q15.26 6.58 14.97 6.52L14.97 6.52L14.97 6.52Q14.69 6.47 14.36 6.47L14.36 6.47L13.36 6.47L13.36 8.95ZM22.92 10.65L22.92 10.65L22.92 10.65Q21.76 10.65 21 10.35L21 10.35L21 10.35Q20.24 10.04 19.79 9.52L19.79 9.52L19.79 9.52Q19.33 9.00 19.15 8.32L19.15 8.32L19.15 8.32Q18.97 7.64 18.97 6.89L18.97 6.89L18.97 6.89Q18.97 6.22 19.15 5.54L19.15 5.54L19.15 5.54Q19.33 4.87 19.73 4.33L19.73 4.33L19.73 4.33Q20.13 3.79 20.78 3.46L20.78 3.46L20.78 3.46Q21.42 3.12 22.34 3.12L22.34 3.12L22.34 3.12Q23.32 3.12 23.98 3.46L23.98 3.46L23.98 3.46Q24.63 3.79 25.02 4.33L25.02 4.33L25.02 4.33Q25.41 4.87 25.57 5.54L25.57 5.54L25.57 5.54Q25.73 6.22 25.73 6.89L25.73 6.89L25.73 7.52L20.78 7.52L20.78 7.52Q20.78 8.27 21.32 8.76L21.32 8.76L21.32 8.76Q21.85 9.25 22.79 9.25L22.79 9.25L22.79 9.25Q23.32 9.25 23.77 9.14L23.77 9.14L23.77 9.14Q24.22 9.03 24.54 8.89L24.54 8.89L24.54 8.89Q24.91 8.74 25.21 8.53L25.21 8.53L25.21 10.09L25.21 10.09Q25.21 10.11 25.03 10.19L25.03 10.19L25.03 10.19Q24.85 10.28 24.54 10.38L24.54 10.38L24.54 10.38Q24.23 10.49 23.81 10.57L23.81 10.57L23.81 10.57Q23.39 10.65 22.92 10.65ZM20.78 6.19L23.95 6.19L23.95 6.19Q23.95 5.95 23.89 5.66L23.89 5.66L23.89 5.66Q23.83 5.38 23.65 5.12L23.65 5.12L23.65 5.12Q23.48 4.87 23.16 4.70L23.16 4.70L23.16 4.70Q22.85 4.54 22.34 4.54L22.34 4.54L22.34 4.54Q21.91 4.54 21.61 4.70L21.61 4.70L21.61 4.70Q21.31 4.87 21.13 5.12L21.13 5.12L21.13 5.12Q20.94 5.38 20.86 5.66L20.86 5.66L20.86 5.66Q20.78 5.95 20.78 6.19L20.78 6.19ZM31.64 3.18L31.64 5.10L31.64 5.10Q31.32 5.03 31.06 5.02L31.06 5.02L31.06 5.02Q30.80 5.01 30.58 5.03L30.58 5.03L30.58 5.03Q30.13 5.05 29.84 5.22L29.84 5.22L29.84 5.22Q29.55 5.39 29.40 5.66L29.40 5.66L29.40 5.66Q29.25 5.94 29.19 6.28L29.19 6.28L29.19 6.28Q29.13 6.62 29.13 6.99L29.13 6.99L29.13 10.50L27.24 10.50L27.24 3.36L28.63 3.36L28.92 4.93L28.92 4.93Q28.92 4.93 28.96 4.77L28.96 4.77L28.96 4.77Q28.99 4.61 29.10 4.38L29.10 4.38L29.10 4.38Q29.20 4.14 29.40 3.88L29.40 3.88L29.40 3.88Q29.60 3.63 29.90 3.43L29.90 3.43L29.90 3.43Q30.20 3.23 30.63 3.15L30.63 3.15L30.63 3.15Q31.05 3.07 31.64 3.18L31.64 3.18ZM37.95 3.29L39.42 3.29L39.42 9.63L39.42 9.63Q39.42 10.32 39.21 10.93L39.21 10.93L39.21 10.93Q38.99 11.54 38.52 12.01L38.52 12.01L38.52 12.01Q38.05 12.47 37.32 12.76L37.32 12.76L37.32 12.76Q36.60 13.05 35.57 13.06L35.57 13.06L35.57 13.06Q35.03 13.06 34.58 12.98L34.58 12.98L34.58 12.98Q34.13 12.91 33.81 12.81L33.81 12.81L33.81 12.81Q33.43 12.70 33.12 12.54L33.12 12.54L33.26 11.05L33.26 11.05Q33.57 11.20 33.94 11.33L33.94 11.33L33.94 11.33Q34.26 11.44 34.67 11.52L34.67 11.52L34.67 11.52Q35.08 11.59 35.57 11.59L35.57 11.59L35.57 11.59Q36.16 11.59 36.53 11.43L36.53 11.43L36.53 11.43Q36.90 11.27 37.12 11.03L37.12 11.03L37.12 11.03Q37.34 10.78 37.44 10.50L37.44 10.50L37.44 10.50Q37.53 10.22 37.55 9.97L37.55 9.97L37.55 9.97Q37.58 9.73 37.56 9.56L37.56 9.56L37.56 9.56Q37.55 9.39 37.55 9.39L37.55 9.39L37.55 9.39Q37.55 9.39 37.44 9.56L37.44 9.56L37.44 9.56Q37.32 9.73 37.07 9.94L37.07 9.94L37.07 9.94Q36.82 10.15 36.41 10.32L36.41 10.32L36.41 10.32Q36.01 10.50 35.42 10.50L35.42 10.50L35.42 10.50Q34.79 10.50 34.23 10.31L34.23 10.31L34.23 10.31Q33.67 10.12 33.25 9.68L33.25 9.68L33.25 9.68Q32.83 9.24 32.59 8.53L32.59 8.53L32.59 8.53Q32.34 7.81 32.34 6.78L32.34 6.78L32.34 6.78Q32.34 5.74 32.65 5.04L32.65 5.04L32.65 5.04Q32.96 4.34 33.42 3.91L33.42 3.91L33.42 3.91Q33.88 3.49 34.42 3.30L34.42 3.30L34.42 3.30Q34.96 3.12 35.42 3.12L35.42 3.12L35.42 3.12Q35.97 3.12 36.37 3.28L36.37 3.28L36.37 3.28Q36.78 3.44 37.04 3.64L37.04 3.64L37.04 3.64Q37.30 3.84 37.43 4.00L37.43 4.00L37.43 4.00Q37.56 4.16 37.56 4.16L37.56 4.16L37.95 3.29ZM37.55 6.82L37.55 6.82L37.55 6.82Q37.55 5.68 37.10 5.13L37.10 5.13L37.10 5.13Q36.65 4.58 35.92 4.58L35.92 4.58L35.92 4.58Q35.20 4.58 34.75 5.13L34.75 5.13L34.75 5.13Q34.30 5.68 34.30 6.82L34.30 6.82L34.30 6.82Q34.30 7.95 34.75 8.50L34.75 8.50L34.75 8.50Q35.20 9.04 35.92 9.04L35.92 9.04L35.92 9.04Q36.65 9.04 37.10 8.50L37.10 8.50L37.10 8.50Q37.55 7.95 37.55 6.82Z"></path></g><defs data-v-423bf9ae=""><linearGradient data-v-423bf9ae="" gradientTransform="rotate(25)" id="7ccea89a-dc14-4624-a2cc-095bce205cf2" x1="0%" y1="0%" x2="100%" y2="0%"><stop data-v-423bf9ae="" offset="0%" style="stop-color: rgb(0, 102, 120); stop-opacity: 1;"></stop><stop data-v-423bf9ae="" offset="100%" style="stop-color: rgb(79, 168, 255); stop-opacity: 1;"></stop></linearGradient></defs><g data-v-423bf9ae="" id="3431f3da-7d35-4b34-9730-f37c7d66b295" transform="matrix(1.001190329180124,0,0,1.001190329180124,49.940483540993796,-5.006014733882971)" stroke="none" fill="url(#7ccea89a-dc14-4624-a2cc-095bce205cf2)"><path d="M22.749 91.928a3.018 3.018 0 0 1-3.018 3.018H8.018A3.018 3.018 0 0 1 5 91.928V80.215a3.018 3.018 0 0 1 3.018-3.018h11.713a3.018 3.018 0 0 1 3.018 3.018v11.713zM95 65.807a8.67 8.67 0 0 1-8.671 8.671H33.946a8.67 8.67 0 0 1-8.671-8.671V13.724a8.67 8.67 0 0 1 8.671-8.671h52.383A8.67 8.67 0 0 1 95 13.724v52.083zM84.347 17.733a2.026 2.026 0 0 0-2.026-2.026H37.955a2.026 2.026 0 0 0-2.026 2.026v44.065c0 1.119.907 2.026 2.026 2.026h44.366a2.026 2.026 0 0 0 2.026-2.026V17.733z"></path></g><!----></svg>