<svg xmlns="http://www.w3.org/2000/svg" xmlns:xlink="http://www.w3.org/1999/xlink" id="Layer_1" data-name="Layer 1" version="1.1" width="682.168" height="293.837"><defs id="defs86"><linearGradient id="linear-gradient" x1="98.26" y1="102.63" x2="98.26" y2="48.92" gradientUnits="userSpaceOnUse"><stop offset="0" stop-color="#dadce0" stop-opacity="0" id="stop2"/><stop offset="1" stop-color="#dadce0" id="stop4"/></linearGradient><linearGradient id="linear-gradient-2" x1="124.09" y1="146.43" x2="124.09" y2="101.66" xlink:href="#linear-gradient" gradientTransform="translate(-45.477 -14.22)"/><linearGradient id="linear-gradient-3" x1="647.63" y1="186.51" x2="647.63" y2="141.73" xlink:href="#linear-gradient" gradientTransform="translate(-45.477 -14.22)"/><linearGradient id="linear-gradient-4" x1="637.53" y1="123.15" x2="637.53" y2="47.24" xlink:href="#linear-gradient" gradientTransform="translate(-45.477 -14.22)"/><linearGradient id="linear-gradient-5" x1="449.94" y1="18.44" x2="449.94" y2="56.47" gradientUnits="userSpaceOnUse"><stop offset="0" stop-color="#bdc1c7" id="stop10"/><stop offset="1" stop-color="#e9eaed" id="stop12"/></linearGradient><linearGradient id="linear-gradient-6" x1="358.32" y1="305.2" x2="358.32" y2="18.37" gradientUnits="userSpaceOnUse"><stop offset="0" stop-color="#e9eaed" stop-opacity="0" id="stop15"/><stop offset=".78" stop-color="#e9eaed" id="stop17"/><stop offset="1" stop-color="#f0f3f4" id="stop19"/></linearGradient><linearGradient id="linear-gradient-7" x1="64.33" y1="304.72" x2="211.74" y2="304.72" gradientUnits="userSpaceOnUse" gradientTransform="translate(-45.477 -14.22)"><stop offset="0" stop-color="#202124" stop-opacity="0" id="stop22"/><stop offset=".19" stop-color="#202124" id="stop24"/><stop offset=".79" stop-color="#202124" id="stop26"/><stop offset="1" stop-color="#202124" stop-opacity="0" id="stop28"/></linearGradient><linearGradient id="linear-gradient-8" x1="-5211.34" y1="-1147.15" x2="-5082.65" y2="-1242.26" gradientTransform="rotate(-90 -1837.16 -3259.85)" gradientUnits="userSpaceOnUse"><stop offset="0" stop-color="#3264ae" id="stop31"/><stop offset="1" stop-color="#517cbe" id="stop33"/></linearGradient><linearGradient id="linear-gradient-9" x1="110.76" y1="238.63" x2="178.28" y2="238.63" gradientUnits="userSpaceOnUse"><stop offset="0" stop-color="#2a5ba7" id="stop36"/><stop offset="1" stop-color="#22509f" id="stop38"/></linearGradient><linearGradient id="linear-gradient-10" x1="127.43" y1="245.85" x2="149.08" y2="220.01" gradientTransform="translate(28.31 21.88)" gradientUnits="userSpaceOnUse"><stop offset="0" stop-color="#517cbe" id="stop41"/><stop offset="1" stop-color="#6f98d0" id="stop43"/></linearGradient><linearGradient id="linear-gradient-11" x1="137.44" y1="245.56" x2="165.61" y2="245.56" xlink:href="#linear-gradient-9"/><linearGradient id="linear-gradient-12" x1="132.81" y1="197.19" x2="141.77" y2="187.75" gradientTransform="rotate(-45 172.645 209.398)" xlink:href="#linear-gradient-10"/><linearGradient id="linear-gradient-13" x1="215.69" y1="304.56" x2="344.67" y2="304.56" gradientUnits="userSpaceOnUse" gradientTransform="translate(-45.477 -14.22)"><stop offset="0" stop-color="#202124" stop-opacity="0" id="stop48"/><stop offset=".61" stop-color="#202124" id="stop50"/><stop offset="1" stop-color="#202124" stop-opacity="0" id="stop52"/></linearGradient><linearGradient id="linear-gradient-14" x1="764.33" y1="221.12" x2="486.31" y2="221.12" gradientUnits="userSpaceOnUse"><stop offset="0" stop-color="#f0f3f4" id="stop55"/><stop offset="1" stop-color="#bdc1c7" id="stop57"/></linearGradient><linearGradient id="linear-gradient-15" x1="202.33" y1="221.12" x2="536.83" y2="221.12" gradientTransform="translate(-45.477 -14.22)" xlink:href="#linear-gradient-14"/><linearGradient id="linear-gradient-16" x1="508.29" y1="223.51" x2="672.88" y2="223.51" gradientUnits="userSpaceOnUse" gradientTransform="translate(-45.477 -14.22)"><stop offset="0" stop-color="#218f3e" id="stop61"/><stop offset="1" stop-color="#5fb674" id="stop63"/></linearGradient><linearGradient id="linear-gradient-17" x1="673.83" y1="221.51" x2="711.33" y2="221.51" gradientUnits="userSpaceOnUse" gradientTransform="translate(-45.477 -14.22)"><stop offset="0" stop-color="#bdc1c7" id="stop66"/><stop offset=".8" stop-color="#f0f3f4" id="stop68"/><stop offset="1" stop-color="#f9fafb" id="stop70"/></linearGradient><linearGradient xlink:href="#linear-gradient" id="linearGradient189" gradientUnits="userSpaceOnUse" x1="98.26" y1="102.63" x2="98.26" y2="48.92" gradientTransform="translate(-45.477 -14.22)"/><linearGradient xlink:href="#linear-gradient-9" id="linearGradient191" gradientUnits="userSpaceOnUse" x1="110.76" y1="238.63" x2="178.28" y2="238.63" gradientTransform="translate(-45.477 -14.22)"/><linearGradient xlink:href="#linear-gradient-10" id="linearGradient193" gradientUnits="userSpaceOnUse" gradientTransform="translate(28.31 21.88)" x1="127.43" y1="245.85" x2="149.08" y2="220.01"/><linearGradient xlink:href="#linear-gradient-14" id="linearGradient195" gradientUnits="userSpaceOnUse" x1="764.33" y1="221.12" x2="486.31" y2="221.12" gradientTransform="translate(-45.477 -14.22)"/><radialGradient id="radial-gradient" cx="48.74" cy="7070.96" r="189.03" gradientTransform="matrix(.56 0 0 .06 350.45 -235.14)" gradientUnits="userSpaceOnUse"><stop offset="0" stop-color="#202124" id="stop73"/><stop offset="1" stop-color="#202124" stop-opacity="0" id="stop75"/></radialGradient><radialGradient id="radial-gradient-2" cx="48.74" cy="7178.94" r="189.03" gradientTransform="matrix(.56 0 0 .06 304.973 -210.53)" xlink:href="#radial-gradient"/><radialGradient id="radial-gradient-3" cx="384.69" cy="7070.96" r="189.03" gradientTransform="matrix(.52 0 0 .06 344.583 -249.36)" xlink:href="#radial-gradient"/><radialGradient id="radial-gradient-4" cx="384.69" cy="7178.94" r="189.03" gradientTransform="matrix(.52 0 0 .06 344.583 -210.53)" xlink:href="#radial-gradient"/><radialGradient xlink:href="#radial-gradient" id="radialGradient197" gradientUnits="userSpaceOnUse" gradientTransform="matrix(.56 0 0 .06 304.973 -249.36)" cx="48.74" cy="7070.96" r="189.03"/><clipPath id="clip-path"><circle class="cls-1" cx="144.52" cy="238.63" r="33.76" id="circle81"/></clipPath><style id="style84">.cls-1{fill:none}.cls-2{fill:#f0f3f4}.cls-15,.cls-5{fill:#fff}.cls-15{opacity:.5}.cls-19{fill:#989ea6}</style></defs><path class="cls-2" d="M2.513 26.16h152.2v194.25H2.513z" id="path88"/><path d="M73.393 51.83a24.7 24.7 0 0 0-25.65 24.67v.57a14.68 14.68 0 0 0-4-.57 4.59 4.59 0 0 1-3.71-1.72 17.63 17.63 0 1 0-6.51 26.78 14.6 14.6 0 0 0 23.93-5.45 24.68 24.68 0 1 0 16-44.28z" style="fill:url(#linearGradient189)" id="path90"/><path d="m2.523 128.63 22.75-28.38c4.13-5.14 9.29-4.39 13.06 1.9l4.83 8.09c8 13.31 18.65 16.31 27.94 7.85l33.25-30.31c3.26-3 7-2.61 10.1 1l40.26 46.43z" style="fill:url(#linear-gradient-2)" id="path92"/><path class="cls-5" d="M74.473 19.45h8.28v214.37h-8.28z" id="path94"/><path class="cls-5" d="M185.803 119.14v8.28H0v-8.28z" id="path96" style="stroke-width:.930988"/><path class="cls-2" d="M529.693 26.16h152.2v194.25h-152.2z" id="path98"/><path d="m526.053 168.7 22.75-28.37c4.12-5.15 9.29-4.4 13.05 1.9l4.84 8.09c8 13.3 18.65 16.31 27.94 7.84l33.26-30.31c3.26-3 7-2.61 10.09 1l40.27 46.43z" style="fill:url(#linear-gradient-3)" id="path100"/><path d="M623.333 85.49h-.24a14.7 14.7 0 0 1-11.28-7.75 38.11 38.11 0 1 0-9.95 47.27 24.05 24.05 0 1 0 21.47-39.49z" style="fill:url(#linear-gradient-4)" id="path102"/><path class="cls-5" d="M601.663 19.45h8.28v214.37h-8.28z" id="path104"/><path class="cls-5" d="M682.168 119.15v8.28H498.613v-8.28z" id="path106" style="stroke-width:.925339"/><g style="opacity:.8" id="g114" transform="translate(-45.477 -14.22)"><path d="M482.39 14.22a34.3 34.3 0 0 1 34.3 34.3v11.31h-133.5V14.22z" style="opacity:.42;fill:url(#linear-gradient-5)" id="path108"/><path d="M449.8 48.52a34.3 34.3 0 0 1 34.3-34.3H266.84a34.3 34.3 0 0 0-34.3 34.3V308H449.8z" style="fill:url(#linear-gradient-6)" id="path110"/><path d="M254.55 77.39h124.08m17.7 0h22.3m-22.3 37.74h22.3m-22.3 37.73h22.3m-22.3 37.74h22.3m-164.08-75.47h124.08m-124.08 37.73h124.08" id="path112" style="fill:none;stroke:#fff;stroke-width:4px;stroke-miterlimit:10"/></g><path style="opacity:.1;fill:url(#linear-gradient-7)" d="M18.853 287.18h147.4v6.64h-147.4z" id="path116"/><rect x="169.746" y="-43.692" width="117.96" height="181.98" rx="17.87" transform="rotate(45)" style="fill:#b1c9ea" id="rect118"/><rect x="168.169" y="-42.129" width="117.96" height="181.98" rx="17.87" transform="rotate(45)" style="fill:url(#linear-gradient-8)" id="rect120"/><path class="cls-15" d="m137.77 202.944 50.51-50.509 12.324 12.325-50.51 50.509z" id="path122"/><path d="m110.043 174.53 50.17-50.17m-38.03 62.3 29.94-29.93" id="path124" style="opacity:.8;fill:none;stroke:#fff;stroke-width:4.58px;stroke-miterlimit:10"/><circle cx="99.043" cy="224.41" r="33.76" style="fill:url(#linearGradient191)" id="circle126"/><g clip-path="url(#clip-path)" id="g140" transform="translate(-45.477 -14.22)"><path class="cls-19" d="M160.39 233.67a24.11 24.11 0 0 1 24.11 24.11v17.55h-48.22v-17.55a24.11 24.11 0 0 1 24.11-24.11z" transform="rotate(-45 160.398 254.501)" id="path128"/><path class="cls-1" d="M160.39 233.67a24.11 24.11 0 0 1 24.11 24.11v17.55h-48.22v-17.55a24.11 24.11 0 0 1 24.11-24.11z" transform="rotate(-45 160.398 254.501)" id="path130"/><path d="M160.39 233.67a24.11 24.11 0 0 1 24.11 24.11v17.55h-48.22v-17.55a24.11 24.11 0 0 1 24.11-24.11z" transform="rotate(-45 160.398 254.501)" style="fill:url(#linearGradient193)" id="path132"/><circle class="cls-19" cx="135.88" cy="230.05" r="12.06" id="circle134"/><path style="fill:url(#linear-gradient-11)" d="m137.44 244.02 28.17 15.43-15.28-27.78z" id="path136"/><circle cx="135.88" cy="230.05" r="12.06" style="fill:url(#linear-gradient-12)" id="circle138"/></g><path style="opacity:.2;fill:url(#linear-gradient-13)" d="M170.213 287.02h128.98v6.64h-128.98z" id="path142"/><path class="cls-2" d="M443.613 119.98h189.91a24.62 24.62 0 0 1 24.62 24.62v124.6a24.62 24.62 0 0 1-24.62 24.58h-189.91z" id="path144"/><path d="M438.403 119.98h189.89a24.62 24.62 0 0 1 24.62 24.62v124.6a24.62 24.62 0 0 1-24.62 24.58h-189.89z" style="fill:url(#linearGradient195)" id="path146"/><path d="M439.353 293.82h-189.89a24.62 24.62 0 0 1-24.62-24.62V144.6a24.62 24.62 0 0 1 24.62-24.58h189.89z" style="fill:url(#linear-gradient-15)" id="path148"/><rect x="244.353" y="146.93" width="389.53" height="6" rx="3" style="opacity:.19;fill:#202124" id="rect150"/><path class="cls-2" d="M264.243 148.78h138a13.28 13.28 0 0 1 13.28 13.23v17.11h-164.56v-17.11a13.28 13.28 0 0 1 13.28-13.23z" id="path152"/><path class="cls-2" d="M263.133 148.78h138a13.28 13.28 0 0 1 13.28 13.28v17.11h-164.55v-17.16a13.28 13.28 0 0 1 13.27-13.23z" id="path154"/><path style="fill:#bdc1c7" d="M335.893 159.2h67.5v10.7h-67.5z" id="path156"/><path d="M264.243 194.1h138a13.28 13.28 0 0 1 13.28 13.28v17.1h-164.56v-17.1a13.28 13.28 0 0 1 13.28-13.28z" style="fill:#f39a08" id="path158"/><path d="M263.133 194.1h138a13.28 13.28 0 0 1 13.28 13.28v17.1h-164.55v-17.1a13.28 13.28 0 0 1 13.27-13.28z" style="fill:#fbbc0c" id="path160"/><rect class="cls-15" x="372.033" y="201.4" width="34.67" height="17.18" rx="8.59" id="rect162"/><path style="opacity:.3;fill:url(#radialGradient197)" d="M224.843 165.52h214.51v13.6h-214.51z" id="path164"/><path style="opacity:.3;fill:url(#radial-gradient-2)" d="M224.843 210.89h214.51v13.6h-214.51z" id="path166"/><path style="opacity:.3;fill:url(#radial-gradient-3)" d="M445.933 165.52h199.45v13.6h-199.45z" id="path168"/><path d="M476.083 194.1h138a13.28 13.28 0 0 1 13.28 13.28v17.1h-164.55v-17.1a13.28 13.28 0 0 1 13.27-13.28z" style="fill:url(#linear-gradient-16)" id="path170"/><path style="opacity:.3;fill:url(#radial-gradient-4)" d="M445.933 210.89h199.45v13.6h-199.45z" id="path172"/><path d="M658.913 188.44h-43.34a21.07 21.07 0 0 0-21.05 21.07 21.06 21.06 0 0 0 21.07 21.06h43.34z" style="opacity:.1;fill:#202124" id="path174"/><path d="M634.673 186.23h27.52v42.13h-27.52a14.61 14.61 0 0 1-14.61-14.58v-12.94a14.61 14.61 0 0 1 14.61-14.61z" style="fill:url(#linear-gradient-17)" id="path176"/><ellipse cx="636.893" cy="206.9" rx="7.64" ry="9.85" style="fill:#202124" id="ellipse178"/><ellipse cx="639.103" cy="206.9" rx="7.64" ry="9.85" style="fill:#60646a" id="ellipse180"/><path style="fill:#84c495" d="M477.253 201.4h46.76v13.86h-46.76z" id="path182"/></svg>